<svg id="Layer_1" data-name="Layer 1" xmlns="http://www.w3.org/2000/svg" viewBox="0 0 35.15 43.4"><defs><style>.cls-1{fill:#374b63;stroke:#374b63;stroke-miterlimit:10;stroke-width:3px;}.cls-2{fill:#fadd30;}.cls-3{fill:#7759a4;}.cls-4{fill:#ee3f40;}.cls-5{fill:#f69137;}.cls-6{fill:#4585c5;}.cls-7{fill:#3bb885;}</style></defs><path class="cls-1" d="M27.94,14.18C21.42,9.1,10.64,12.36,9.8,21.91c-.87,10,9.8,15,17,10.49L30.87,38A18.5,18.5,0,1,1,33,9.3Z" transform="translate(0 0)"/><rect class="cls-2" x="27.29" y="12.38" width="5.8" height="3.2" rx="1.6" transform="translate(23.75 -18.66) rotate(54)"/><rect class="cls-3" x="21.54" y="11.47" width="3.2" height="3.2" rx="1.6" transform="translate(20.12 -13.33) rotate(54)"/><rect class="cls-3" x="8.58" y="4.27" width="5.8" height="3.2" rx="1.6" transform="translate(13.48 18.61) rotate(-126)"/><rect class="cls-4" x="8.5" y="13" width="5.8" height="3.2" rx="1.6" transform="translate(6.29 32.41) rotate(-126)"/><rect class="cls-5" x="8.1" y="19.51" width="3.2" height="3.2" rx="1.6" transform="translate(21.08 0.85) rotate(54)"/><rect class="cls-2" x="6.83" y="26.61" width="3.2" height="3.2" rx="1.6" transform="translate(26.3 4.81) rotate(54)"/><rect class="cls-3" x="8.57" y="33.41" width="9.6" height="3.2" rx="1.6" transform="translate(33.83 3.61) rotate(54)"/><rect class="cls-6" x="16.71" y="40.2" width="3.2" height="3.2" rx="1.6" transform="translate(41.37 2.42) rotate(54)"/><rect class="cls-7" x="-1.99" y="33.23" width="17.6" height="3.2" rx="1.6" transform="translate(30.98 8.85) rotate(54)"/><rect class="cls-6" x="29.16" y="6.1" width="5.8" height="3.2" rx="1.6" transform="translate(19.45 -22.76) rotate(54)"/><rect class="cls-7" x="17.79" y="3.56" width="12" height="3.2" rx="1.6" transform="translate(13.98 -17.12) rotate(54)"/><rect class="cls-5" x="13.39" y="4.66" width="9.6" height="3.2" rx="1.6" transform="translate(23.82 24.65) rotate(-126)"/><rect class="cls-6" x="5.94" y="7.69" width="3.2" height="3.2" rx="1.6" transform="translate(10.63 -2.27) rotate(54)"/><rect class="cls-6" x="-1.32" y="19.79" width="9.6" height="3.2" rx="1.6" transform="translate(-11.78 36.78) rotate(-126)"/><rect class="cls-4" x="15.57" y="35.85" width="12" height="3.2" rx="1.6" transform="translate(39.19 -2.01) rotate(54)"/><rect class="cls-3" x="2.26" y="13.87" width="6.68" height="3.2" rx="1.6" transform="translate(14.83 1.84) rotate(54)"/><rect class="cls-2" x="13.03" y="11" width="6.68" height="3.2" rx="1.6" transform="translate(16.94 -8.05) rotate(54)"/><rect class="cls-5" x="26.25" y="37.44" width="5.8" height="3.2" rx="1.6" transform="translate(43.6 -7.49) rotate(54)"/><rect class="cls-6" x="21.67" y="31.13" width="5.8" height="3.2" rx="1.6" transform="translate(36.61 -6.39) rotate(54)"/></svg>