<svg id="Layer_1" data-name="Layer 1" xmlns="http://www.w3.org/2000/svg" xmlns:xlink="http://www.w3.org/1999/xlink" viewBox="0 0 57.87 57.87"><defs><style>.cls-1{fill:none;}.cls-2{fill:#364b63;}.cls-3{clip-path:url(#clip-path);}.cls-4{fill:#ff9331;}.cls-5{fill:#268cea;}.cls-6{fill:#fcde32;}.cls-7{fill:#8c46e8;}.cls-8{fill:#ef3f3f;}.cls-9{fill:#05c68a;}.cls-10{fill:#f6f6f6;}</style><clipPath id="clip-path"><rect class="cls-1" width="57.87" height="57.87" rx="8"/></clipPath></defs><rect class="cls-2" width="57.87" height="57.87" rx="8"/><g class="cls-3"><rect class="cls-4" x="46.41" y="18.73" width="15.99" height="5.33" rx="2.66" transform="translate(31.06 -32.2) rotate(45)"/><rect class="cls-5" x="7.43" y="-6" width="19.98" height="5.33" rx="2.66" transform="translate(2.75 -13.3) rotate(45)"/><rect class="cls-6" x="32.11" y="-1.15" width="29.31" height="5.33" rx="2.66" transform="translate(14.76 -32.62) rotate(45)"/><rect class="cls-5" x="38.15" y="7.31" width="9.66" height="5.33" rx="2.66" transform="translate(19.64 -27.47) rotate(45)"/><rect class="cls-7" x="12.19" y="-8.82" width="29.31" height="5.33" rx="2.66" transform="translate(3.51 -20.79) rotate(45)"/><rect class="cls-8" x="30.69" y="15.2" width="15.99" height="5.33" rx="2.66" transform="translate(23.96 -22.12) rotate(45)"/><rect class="cls-4" x="26.13" y="5.31" width="5.33" height="5.33" rx="2.66" transform="translate(14.07 -18.03) rotate(45)"/><rect class="cls-9" x="42.4" y="33.57" width="29.31" height="5.33" rx="2.66" transform="translate(42.33 -29.73) rotate(45)"/><rect class="cls-8" x="0.3" y="-2.95" width="15.99" height="5.33" rx="2.66" transform="translate(14.35 5.37) rotate(-135)"/><rect class="cls-7" x="29.01" y="22.6" width="9.66" height="5.33" rx="2.66" transform="translate(27.78 -16.53) rotate(45)"/><rect class="cls-6" x="38.83" y="30.26" width="5.33" height="5.33" rx="2.66" transform="translate(35.43 -19.7) rotate(45)"/><rect class="cls-5" x="43.58" y="40.34" width="15.99" height="5.33" rx="2.66" transform="translate(45.51 -23.88) rotate(45)"/><rect class="cls-4" x="-2.6" y="1.07" width="5.33" height="5.33" rx="2.66" transform="translate(2.66 1.05) rotate(45)"/><rect class="cls-9" x="-0.02" y="15.64" width="29.31" height="5.33" rx="2.66" transform="translate(17.23 -4.99) rotate(45)"/><rect class="cls-5" x="25.01" y="34.01" width="15.99" height="5.33" rx="2.66" transform="translate(30.41 85.94) rotate(-135)"/><rect class="cls-8" x="39.59" y="45.43" width="9.66" height="5.33" rx="2.66" transform="translate(41.83 113.52) rotate(-135)"/><rect class="cls-6" x="-10.28" y="10.97" width="15.99" height="5.33" rx="2.66" transform="translate(8.97 5.61) rotate(45)"/><rect class="cls-5" x="4.93" y="20.85" width="5.33" height="5.33" rx="2.66" transform="translate(18.85 1.52) rotate(45)"/><rect class="cls-7" x="9.54" y="30.79" width="15.99" height="5.33" rx="2.66" transform="translate(28.79 -2.6) rotate(45)"/><rect class="cls-4" x="21.25" y="49.16" width="29.31" height="5.33" rx="2.66" transform="translate(47.16 -10.21) rotate(45)"/><rect class="cls-9" x="-18.36" y="21.8" width="29.31" height="5.33" rx="2.66" transform="translate(16.21 9.78) rotate(45)"/><rect class="cls-4" x="8.23" y="36.39" width="5.33" height="5.33" rx="2.66" transform="translate(30.81 3.74) rotate(45)"/><rect class="cls-6" x="12.79" y="46.29" width="15.99" height="5.33" rx="2.66" transform="translate(40.7 -0.36) rotate(45)"/><rect class="cls-8" x="28.01" y="56.18" width="5.33" height="5.33" rx="2.66" transform="translate(50.59 -4.46) rotate(45)"/><rect class="cls-8" x="-1.41" y="44.33" width="15.99" height="5.33" rx="2.66" transform="translate(35.16 9.11) rotate(45)"/><rect class="cls-5" x="13.19" y="55.76" width="9.66" height="5.33" rx="2.66" transform="translate(-10.56 112.48) rotate(-135)"/><rect class="cls-9" x="-8.81" y="45.76" width="9.66" height="5.33" rx="2.66" transform="translate(33.08 17) rotate(45)"/><rect class="cls-7" x="1.01" y="53.42" width="5.33" height="5.33" rx="2.66" transform="translate(40.73 13.83) rotate(45)"/><rect class="cls-9" x="49.38" y="53.19" width="5.33" height="5.33" rx="2.66" transform="translate(54.74 -20.44) rotate(45)"/><rect class="cls-6" x="15.01" y="8.6" width="9.66" height="5.33" rx="2.66" transform="translate(13.78 -10.73) rotate(45)"/></g><path class="cls-10" d="M38.37,34.45l-1.43,1.08a8.32,8.32,0,0,1-8.68.72,7.84,7.84,0,0,1-4.35-7.32A7.78,7.78,0,0,1,28,21.87a8.62,8.62,0,0,1,8.7.27l1.41.91,6.58-7.6L43.07,14.2a19,19,0,0,0-11.52-4A18.7,18.7,0,1,0,43.49,43.31L45,42.05Z"/></svg>