<svg xmlns="http://www.w3.org/2000/svg" viewBox="0 0 190.84 46.27"><defs><style>.cls-1{fill:#364b63;}</style></defs><g id="Layer_2" data-name="Layer 2"><g id="Layer_1-2" data-name="Layer 1"><path class="cls-1" d="M26.35,3.46l-4,4.66a9.82,9.82,0,0,0-5-1.54,10.33,10.33,0,0,0-5,1A9.61,9.61,0,0,0,7,16.29a9.66,9.66,0,0,0,1.62,5.57,9.3,9.3,0,0,0,4,3.41,10.47,10.47,0,0,0,5.14.81,9.14,9.14,0,0,0,4.94-1.89l4,4.63a16,16,0,0,1-10.42,3.76A15.71,15.71,0,0,1,4.78,27.81,15.7,15.7,0,0,1,0,16.29,15.68,15.68,0,0,1,4.78,4.78,15.68,15.68,0,0,1,16.29,0,16,16,0,0,1,26.35,3.46Z"/><path class="cls-1" d="M38.29,12a10.58,10.58,0,0,1,7.6,3A9.66,9.66,0,0,1,49,22.26a9.65,9.65,0,0,1-3.12,7.25,10.58,10.58,0,0,1-7.6,3,10.55,10.55,0,0,1-7.57-3,9.65,9.65,0,0,1-3.12-7.25A9.66,9.66,0,0,1,30.72,15,10.54,10.54,0,0,1,38.29,12Zm3.63,14a5.43,5.43,0,0,0,1.44-3.81,5.15,5.15,0,0,0-1.44-3.68A4.74,4.74,0,0,0,38.33,17a4.38,4.38,0,0,0-3.5,1.57,5,5,0,0,0-1.53,3.72A5.1,5.1,0,0,0,34.83,26a4.53,4.53,0,0,0,3.5,1.53A4.9,4.9,0,0,0,41.92,26Z"/><path class="cls-1" d="M68.22,32V29.67A10,10,0,0,1,61,32.58a9.85,9.85,0,0,1-7.25-3,10,10,0,0,1-3-7.27,9.87,9.87,0,0,1,3-7.27A9.82,9.82,0,0,1,61,12,9.93,9.93,0,0,1,68.22,15V.73h5.3V32ZM56.73,22.31A5.26,5.26,0,0,0,58.21,26a4.93,4.93,0,0,0,7.14,0,5.22,5.22,0,0,0,1.48-3.72,5.35,5.35,0,0,0-1.48-3.73,5,5,0,0,0-7.14,0A5.39,5.39,0,0,0,56.73,22.31Z"/><path class="cls-1" d="M89.59,26.08l4.22,2.83A9.69,9.69,0,0,1,86,32.5,10.31,10.31,0,0,1,75.76,22.22a9.88,9.88,0,0,1,3-7.27,10.28,10.28,0,0,1,14.54,0,9.88,9.88,0,0,1,3,7.27,8.9,8.9,0,0,1-.18,1.84H81.69a5.31,5.31,0,0,0,1.12,1.88,4.51,4.51,0,0,0,3.45,1.57A4.56,4.56,0,0,0,89.59,26.08Zm-8-5.43h9.29a5.58,5.58,0,0,0-1.21-2.2,4.45,4.45,0,0,0-3.42-1.53,4.57,4.57,0,0,0-3.45,1.53A6.74,6.74,0,0,0,81.6,20.65Z"/><path class="cls-1" d="M109.92,18.67l-.23,0a14.69,14.69,0,0,1-4.75-2,8.54,8.54,0,0,1-4-7.09,8.22,8.22,0,0,1,2.29-6.42A9.29,9.29,0,0,1,106.84.79,11.08,11.08,0,0,1,110.5,0a14.92,14.92,0,0,1,4,.54,13.72,13.72,0,0,1,2.87,1.06c.63.34,1.47.86,2.52,1.55l1,.67L117.68,9.2l-1.12-.72c-.87-.54-1.51-.92-1.93-1.16a7.87,7.87,0,0,0-1.73-.68,8.66,8.66,0,0,0-2.4-.31,4.41,4.41,0,0,0-1.34.31,3.76,3.76,0,0,0-1.44.86,2.29,2.29,0,0,0-.54,1.79,2.48,2.48,0,0,0,1,2,8.1,8.1,0,0,0,3.07,1.28q.36.09.9.27A16.78,16.78,0,0,1,119.07,17a8.92,8.92,0,0,1,2.47,6.15A9,9,0,0,1,119,29.35a9.24,9.24,0,0,1-7.23,3.23,19.23,19.23,0,0,1-5.52-.76,17,17,0,0,1-7.49-4.76l4.58-4.3a11,11,0,0,0,8.43,3.54,3.06,3.06,0,0,0,2.58-1.12,3.45,3.45,0,0,0,.88-2.06q0-2.61-5.21-4.4Z"/><path class="cls-1" d="M141.16,12.61h4.31V32h-4.76V30.07a10.32,10.32,0,0,1-13.92-.56,9.83,9.83,0,0,1-3-7.25,9.85,9.85,0,0,1,3-7.25,10.35,10.35,0,0,1,13.92-.56ZM138.33,26a5.24,5.24,0,0,0,1.48-3.73,5,5,0,0,0-1.48-3.72A4.68,4.68,0,0,0,134.78,17a4.92,4.92,0,0,0-3.59,1.53,5.26,5.26,0,0,0-1.48,3.72A5.39,5.39,0,0,0,131.19,26a5,5,0,0,0,3.59,1.52A4.7,4.7,0,0,0,138.33,26Z"/><path class="cls-1" d="M168.58,14.59l-3.28,1.07a7.91,7.91,0,0,1,2.25,5.61,8.09,8.09,0,0,1-2.81,6.2A9.69,9.69,0,0,1,158,30a10.65,10.65,0,0,1-2.07-.23c-.45.84-.82,1.62-1.12,2.34a26.16,26.16,0,0,1,3.41-.23c3.53,0,6.24.59,8.13,1.75a6.1,6.1,0,0,1,3,5.43,6.06,6.06,0,0,1-2.92,5.43c-1.82,1.17-4.58,1.75-8.26,1.75s-6.43-.58-8.26-1.75A6.07,6.07,0,0,1,147,39.09a6.18,6.18,0,0,1,.54-2.55A29.23,29.23,0,0,1,152,28.1a8.26,8.26,0,0,1-3.5-6.83,8.09,8.09,0,0,1,2.78-6.19A9.56,9.56,0,0,1,158,12.52c.3,0,.75,0,1.34.09l9.25-1.75ZM158.21,41.16q5.65,0,5.66-2.07c0-.66-.51-1.16-1.53-1.52a12.74,12.74,0,0,0-4.13-.54,12.45,12.45,0,0,0-4.13.56c-1,.37-1.52.87-1.52,1.5Q152.56,41.16,158.21,41.16Zm2.67-22.53A4.15,4.15,0,0,0,158,17.55a4,4,0,0,0-2.87,1.12,3.51,3.51,0,0,0-1.17,2.6A3.39,3.39,0,0,0,155.18,24,4.21,4.21,0,0,0,158,25a4,4,0,0,0,2.89-1.12,3.5,3.5,0,0,0,1.19-2.61A3.43,3.43,0,0,0,160.88,18.63Z"/><path class="cls-1" d="M184.11,26.08l4.22,2.83a9.68,9.68,0,0,1-7.77,3.59,10.31,10.31,0,0,1-10.27-10.28,10.26,10.26,0,0,1,10.27-10.28,9.87,9.87,0,0,1,7.27,3,9.88,9.88,0,0,1,3,7.27,8.9,8.9,0,0,1-.18,1.84H176.21a5.31,5.31,0,0,0,1.12,1.88,4.58,4.58,0,0,0,6.78.14Zm-8-5.43h9.29a5.46,5.46,0,0,0-1.21-2.2,4.44,4.44,0,0,0-3.41-1.53,4.58,4.58,0,0,0-3.46,1.53A6.74,6.74,0,0,0,176.12,20.65Z"/></g></g></svg>