<svg id="Layer_1" data-name="Layer 1" xmlns="http://www.w3.org/2000/svg" viewBox="0 0 1132.37 274.57"><defs><style>.cls-1{fill:#fff;}.cls-2{fill:#05c68a;}</style></defs><path class="cls-1" d="M156.33,20.51l-24,27.69A58.26,58.26,0,0,0,102.93,39a61.8,61.8,0,0,0-29.56,5.74q-13.45,6.38-22.64,20.1T41.54,96.68q0,18.9,9.59,33T74.7,149.94a62.36,62.36,0,0,0,30.5,4.79,54.08,54.08,0,0,0,29.29-11.18l24,27.43q-27.17,22.36-61.79,22.37-39.94,0-68.31-28.36T0,96.68q0-40,28.36-68.32T96.67,0A94.65,94.65,0,0,1,156.33,20.51Z"/><path class="cls-1" d="M227.17,71.38q26.63,0,45.14,17.7t18.51,43q0,25.31-18.51,43t-45.14,17.72q-26.37,0-44.88-17.72t-18.5-43q0-25.3,18.5-43T227.17,71.38Zm21.57,83.08a32.32,32.32,0,0,0,8.52-22.63A30.74,30.74,0,0,0,248.74,110a28.21,28.21,0,0,0-21.3-9.32q-12.8,0-20.78,9.32-9,8.79-9,22.11a30.39,30.39,0,0,0,9,22.36,26.93,26.93,0,0,0,20.78,9.06A29.15,29.15,0,0,0,248.74,154.46Z"/><path class="cls-1" d="M404.8,189.62V176a59,59,0,0,1-42.6,17.31q-25.32,0-43-17.85t-17.71-43.14a58.76,58.76,0,0,1,17.85-43.14q17.83-17.84,42.88-17.84a59.08,59.08,0,0,1,42.6,17.3V4.33h31.43V189.62Zm-68.18-57.26a31.08,31.08,0,0,0,8.8,22.1,27.71,27.71,0,0,0,21,9.06,28,28,0,0,0,21.31-9.06,31.16,31.16,0,0,0,8.79-22.1,31.78,31.78,0,0,0-8.79-22.1,28.08,28.08,0,0,0-21.31-9.06,27.74,27.74,0,0,0-21,9.06A31.7,31.7,0,0,0,336.62,132.36Z"/><path class="cls-1" d="M531.56,154.73l25,16.78q-17.83,21.3-46.07,21.31-25,0-43-17.85a58.52,58.52,0,0,1-18-43.14,61,61,0,1,1,122,0,53,53,0,0,1-1.06,10.92H484.69a31.71,31.71,0,0,0,6.66,11.18q8.52,9.33,20.51,9.32Q523,163.25,531.56,154.73Zm-47.4-32.22h55.13a32.45,32.45,0,0,0-7.19-13.05,26.37,26.37,0,0,0-20.24-9.06,27.19,27.19,0,0,0-20.51,9.06A39.92,39.92,0,0,0,484.16,122.51Z"/><path class="cls-2" d="M652.21,110.79l-1.33-.27Q633,106,622.65,98.81q-22.65-14.93-24-42.08-1.33-22.38,13.58-38.09a56.17,56.17,0,0,1,21.7-14Q646.35.26,655.67.27a88.4,88.4,0,0,1,24,3.2q11.45,3.18,17,6.25t14.92,9.19l6.12,4L698.28,54.6l-6.65-4.26q-7.74-4.8-11.46-6.93a47.89,47.89,0,0,0-10.25-4,51.83,51.83,0,0,0-14.25-1.86,27,27,0,0,0-8,1.86,22.31,22.31,0,0,0-8.52,5.07c-2.31,2.3-3.38,5.86-3.2,10.65a14.89,14.89,0,0,0,5.73,11.58q5.46,4.4,18.24,7.59c1.42.36,3.2.9,5.32,1.6q26.91,9.33,41.28,24.77,14.65,16.24,14.65,36.49,0,20.51-14.91,37-17,19.17-42.88,19.18a114,114,0,0,1-32.75-4.53,101.49,101.49,0,0,1-44.48-28.23L613.32,135q19.71,21,50.07,21,10.13,0,15.31-6.65t5.2-12.25q0-15.45-30.89-26.1Z"/><path class="cls-2" d="M837.56,74.84h25.57V189.62H834.9V178.44a59.34,59.34,0,0,1-39.41,14.38q-25.32,0-43.15-17.72t-17.84-43q0-25.3,17.84-43t43.15-17.7A59.33,59.33,0,0,1,834.9,85.75ZM820.79,154.2a31.16,31.16,0,0,0,8.79-22.1q0-13.32-8.79-22.11a27.79,27.79,0,0,0-21-9.06A29.2,29.2,0,0,0,778.44,110a31.14,31.14,0,0,0-8.79,22.11,31.73,31.73,0,0,0,8.79,22.1,29.15,29.15,0,0,0,21.31,9.05A27.75,27.75,0,0,0,820.79,154.2Z"/><path class="cls-2" d="M1000.28,86.55l-19.44,6.39a46.92,46.92,0,0,1,13.32,33.29q0,21.58-16.65,36.76t-40.08,15.18a62.63,62.63,0,0,1-12.25-1.33q-4,7.46-6.66,13.85a153,153,0,0,1,20.24-1.34q31.43,0,48.21,10.39,18.1,11.44,18.1,32.23,0,21-17.3,32.22-16.24,10.38-49,10.38t-49-10.38Q872.45,253,872.45,232a37,37,0,0,1,3.2-15.19Q882,194.94,902,166.71q-20.78-16-20.77-40.48,0-21.56,16.51-36.75T937.43,74.3c1.77,0,4.44.18,8,.54l54.86-10.39ZM938.76,244.21q33.56,0,33.56-12.24,0-5.88-9.05-9.06t-24.51-3.19q-15.45,0-24.5,3.32t-9,8.93Q905.21,244.21,938.76,244.21Zm15.85-133.69a24.68,24.68,0,0,0-17.18-6.39,23.62,23.62,0,0,0-17,6.66q-6.93,6.66-6.93,15.44a19.94,19.94,0,0,0,7.33,15.85,24.92,24.92,0,0,0,16.64,6.26,24.12,24.12,0,0,0,17.18-6.66q7-6.65,7.06-15.45A20.39,20.39,0,0,0,954.61,110.52Z"/><path class="cls-2" d="M1092.43,154.73l25,16.78q-17.84,21.3-46.07,21.31-25,0-43-17.85a58.55,58.55,0,0,1-18-43.14,61,61,0,1,1,122,0,53,53,0,0,1-1.06,10.92h-85.76a31.71,31.71,0,0,0,6.66,11.18q8.54,9.33,20.51,9.32Q1083.91,163.25,1092.43,154.73ZM1045,122.51h55.13a32.45,32.45,0,0,0-7.19-13.05,26.37,26.37,0,0,0-20.24-9.06,27.21,27.21,0,0,0-20.51,9.06A39.92,39.92,0,0,0,1045,122.51Z"/></svg>