<?xml version="1.0" encoding="UTF-8"?>
<svg width="1096px" height="1024px" viewBox="0 0 1096 1024" version="1.1" xmlns="http://www.w3.org/2000/svg" xmlns:xlink="http://www.w3.org/1999/xlink">
    <title>img_background_2</title>
    <defs>
        <rect id="path-1" x="0" y="0" width="1440" height="1024"></rect>
        <linearGradient x1="50%" y1="82.198127%" x2="26.6638076%" y2="16.5944157%" id="linearGradient-3">
            <stop stop-color="#29C3C5" offset="0%"></stop>
            <stop stop-color="#A7ECCC" stop-opacity="0" offset="100%"></stop>
        </linearGradient>
        <path d="M305.7341,1068.23119 L334.136859,1051.82744 C340.323486,1048.25441 344.134385,1041.65265 344.134385,1034.50836 L344.134385,937.598557 C344.134385,930.454266 347.945283,923.852507 354.13191,920.279478 L777.118629,675.987401 C783.305256,672.414372 787.116155,665.812613 787.116155,658.668322 L787.116155,415.077223 C787.116155,407.938746 783.311404,401.34144 777.132719,397.766289 L636.978172,316.669166 L636.978172,316.669166 L636.978172,-28.0297405 L1458.39285,-28.0297405 L1458.39285,1179.93727 L311.553556,1093.73278 C304.015466,1093.16617 298.36397,1086.59601 298.930586,1079.05792 C299.269705,1074.54638 301.816294,1070.49388 305.7341,1068.23119 Z" id="path-4"></path>
        <linearGradient x1="78.0347966%" y1="50.0680193%" x2="19.1906862%" y2="50.0665421%" id="linearGradient-6">
            <stop stop-color="#60D3D0" offset="0%"></stop>
            <stop stop-color="#47CCCB" stop-opacity="0" offset="100%"></stop>
        </linearGradient>
    </defs>
    <g id="Page-1" stroke="none" stroke-width="1" fill="none" fill-rule="evenodd">
        <g id="img_background_2" transform="translate(-344.000000, 0.000000)">
            <mask id="mask-2" fill="white">
                <use xlink:href="#path-1"></use>
            </mask>
            <g id="Mask"></g>
            <mask id="mask-5" fill="white">
                <use xlink:href="#path-4"></use>
            </mask>
            <use id="Path-34" fill="url(#linearGradient-3)" xlink:href="#path-4"></use>
            <g id="GRID-Copy" opacity="0.200000003" mask="url(#mask-5)" stroke-linecap="square">
                <g transform="translate(-653.000000, 7.000000)">
                    <g id="Group" transform="translate(962.000000, 850.500000) rotate(30.000000) translate(-962.000000, -850.500000) translate(147.000000, 339.000000)">
                        <g id="Group-28" transform="translate(0.000000, 510.000000)" stroke="#FFFFFF">
                            <line x1="0.5" y1="1.5" x2="1629.5" y2="1.5" id="Line-Copy-21"></line>
                            <line x1="0.5" y1="31.5" x2="1629.5" y2="31.5" id="Line-Copy-20"></line>
                            <line x1="0.5" y1="61.5" x2="1629.5" y2="61.5" id="Line-Copy-19"></line>
                            <line x1="0.5" y1="91.5" x2="1629.5" y2="91.5" id="Line-Copy-18"></line>
                            <line x1="0.5" y1="121.5" x2="1629.5" y2="121.5" id="Line-Copy-17"></line>
                            <line x1="0.5" y1="151.5" x2="1629.5" y2="151.5" id="Line-Copy-16"></line>
                            <line x1="0.5" y1="181.5" x2="1629.5" y2="181.5" id="Line-Copy-15"></line>
                            <line x1="0.5" y1="211.5" x2="1629.5" y2="211.5" id="Line-Copy-14"></line>
                            <line x1="0.5" y1="241.5" x2="1629.5" y2="241.5" id="Line-Copy-13"></line>
                            <line x1="0.5" y1="271.5" x2="1629.5" y2="271.5" id="Line-Copy-35"></line>
                            <line x1="0.5" y1="301.5" x2="1629.5" y2="301.5" id="Line-Copy-34"></line>
                            <line x1="0.5" y1="331.5" x2="1629.5" y2="331.5" id="Line-Copy-33"></line>
                            <line x1="0.5" y1="361.5" x2="1629.5" y2="361.5" id="Line-Copy-32"></line>
                            <line x1="0.5" y1="391.5" x2="1629.5" y2="391.5" id="Line-Copy-31"></line>
                            <line x1="0.5" y1="421.5" x2="1629.5" y2="421.5" id="Line-Copy-30"></line>
                            <line x1="0.5" y1="451.5" x2="1629.5" y2="451.5" id="Line-Copy-29"></line>
                        </g>
                    </g>
                    <g id="Group-Copy" transform="translate(962.000000, 850.500000) scale(-1, 1) rotate(30.000000) translate(-962.000000, -850.500000) translate(147.000000, 339.000000)">
                        <line x1="0.5" y1="31.5" x2="1629.5" y2="31.5" id="Line-Copy" stroke="url(#linearGradient-6)"></line>
                        <line x1="0.5" y1="61.5" x2="1629.5" y2="61.5" id="Line-Copy-2" stroke="url(#linearGradient-6)"></line>
                        <line x1="0.5" y1="91.5" x2="1629.5" y2="91.5" id="Line-Copy-3" stroke="url(#linearGradient-6)"></line>
                        <line x1="0.5" y1="121.5" x2="1629.5" y2="121.5" id="Line-Copy-4" stroke="url(#linearGradient-6)"></line>
                        <line x1="0.5" y1="151.5" x2="1629.5" y2="151.5" id="Line-Copy-5" stroke="url(#linearGradient-6)"></line>
                        <line x1="0.5" y1="181.5" x2="1629.5" y2="181.5" id="Line-Copy-6" stroke="url(#linearGradient-6)"></line>
                        <line x1="0.5" y1="211.5" x2="1629.5" y2="211.5" id="Line-Copy-7" stroke="url(#linearGradient-6)"></line>
                        <line x1="0.5" y1="241.5" x2="1629.5" y2="241.5" id="Line-Copy-8" stroke="url(#linearGradient-6)"></line>
                        <line x1="0.5" y1="271.5" x2="1629.5" y2="271.5" id="Line-Copy-9" stroke="url(#linearGradient-6)"></line>
                        <line x1="0.5" y1="301.5" x2="1629.5" y2="301.5" id="Line-Copy-10" stroke="url(#linearGradient-6)"></line>
                        <line x1="0.5" y1="331.5" x2="1629.5" y2="331.5" id="Line-Copy-11" stroke="url(#linearGradient-6)"></line>
                        <line x1="0.5" y1="361.5" x2="1629.5" y2="361.5" id="Line-Copy-12" stroke="url(#linearGradient-6)"></line>
                        <line x1="0.5" y1="421.5" x2="1629.5" y2="421.5" id="Line-Copy-24" stroke="url(#linearGradient-6)"></line>
                        <line x1="0.5" y1="451.5" x2="1629.5" y2="451.5" id="Line-Copy-23" stroke="url(#linearGradient-6)"></line>
                        <line x1="0.5" y1="481.5" x2="1629.5" y2="481.5" id="Line-Copy-22" stroke="url(#linearGradient-6)"></line>
                        <line x1="0.5" y1="511.5" x2="1629.5" y2="511.5" id="Line-Copy-21" stroke="url(#linearGradient-6)"></line>
                        <line x1="0.5" y1="541.5" x2="1629.5" y2="541.5" id="Line-Copy-20" stroke="url(#linearGradient-6)"></line>
                        <line x1="0.5" y1="571.5" x2="1629.5" y2="571.5" id="Line-Copy-19" stroke="url(#linearGradient-6)"></line>
                        <line x1="0.5" y1="601.5" x2="1629.5" y2="601.5" id="Line-Copy-18" stroke="#FFFFFF"></line>
                        <line x1="0.5" y1="631.5" x2="1629.5" y2="631.5" id="Line-Copy-17" stroke="#FFFFFF"></line>
                        <line x1="0.5" y1="661.5" x2="1629.5" y2="661.5" id="Line-Copy-16" stroke="#FFFFFF"></line>
                        <line x1="0.5" y1="691.5" x2="1629.5" y2="691.5" id="Line-Copy-15" stroke="#FFFFFF"></line>
                        <line x1="0.5" y1="721.5" x2="1629.5" y2="721.5" id="Line-Copy-14" stroke="url(#linearGradient-6)"></line>
                        <line x1="0.5" y1="751.5" x2="1629.5" y2="751.5" id="Line-Copy-13" stroke="url(#linearGradient-6)"></line>
                        <line x1="0.5" y1="781.5" x2="1629.5" y2="781.5" id="Line-Copy-35" stroke="url(#linearGradient-6)"></line>
                        <line x1="0.5" y1="811.5" x2="1629.5" y2="811.5" id="Line-Copy-34" stroke="url(#linearGradient-6)"></line>
                        <line x1="0.5" y1="841.5" x2="1629.5" y2="841.5" id="Line-Copy-33" stroke="url(#linearGradient-6)"></line>
                        <line x1="0.5" y1="871.5" x2="1629.5" y2="871.5" id="Line-Copy-32" stroke="url(#linearGradient-6)"></line>
                        <line x1="0.5" y1="901.5" x2="1629.5" y2="901.5" id="Line-Copy-31" stroke="url(#linearGradient-6)"></line>
                        <line x1="0.5" y1="931.5" x2="1629.5" y2="931.5" id="Line-Copy-30" stroke="url(#linearGradient-6)"></line>
                        <line x1="0.5" y1="961.5" x2="1629.5" y2="961.5" id="Line-Copy-29" stroke="url(#linearGradient-6)"></line>
                        <line x1="0.5" y1="991.5" x2="1629.5" y2="991.5" id="Line-Copy-28" stroke="url(#linearGradient-6)"></line>
                        <line x1="0.5" y1="1021.5" x2="1629.5" y2="1021.5" id="Line-Copy-27" stroke="url(#linearGradient-6)"></line>
                        <line x1="0.5" y1="391.5" x2="1629.5" y2="391.5" id="Line-Copy-25" stroke="url(#linearGradient-6)"></line>
                        <line x1="0.5" y1="1.5" x2="1629.5" y2="1.5" id="Line" stroke="url(#linearGradient-6)"></line>
                    </g>
                </g>
            </g>
        </g>
    </g>
</svg>